<svg version="1.1" id="Layer_1" xmlns="http://www.w3.org/2000/svg" xmlns:xlink="http://www.w3.org/1999/xlink" x="0px" y="0px"
	 width="100%" viewBox="0 0 500 500" enable-background="new 0 0 500 500" xml:space="preserve">
<path fill="#FFFFFF" opacity="1.000000" stroke="none" 
	d="
M285.000000,501.000000 
	C190.000015,501.000000 95.500046,501.000000 1.000051,501.000000 
	C1.000034,334.333405 1.000034,167.666794 1.000017,1.000140 
	C167.666565,1.000093 334.333130,1.000093 500.999756,1.000047 
	C500.999847,167.666519 500.999847,334.333038 500.999939,500.999786 
	C429.166656,501.000000 357.333344,501.000000 285.000000,501.000000 
M263.469360,216.105606 
	C263.635742,216.422302 263.802094,216.738983 263.988220,217.516586 
	C263.988220,217.516586 263.887451,217.966766 263.199615,218.077728 
	C259.118958,223.377121 255.038315,228.676514 251.001648,233.992661 
	C251.001648,233.992661 250.980057,233.950851 250.515900,234.112778 
	C250.159515,234.304794 250.062637,234.586166 249.881699,235.598236 
	C247.910782,238.129684 245.939880,240.661133 243.467865,243.113083 
	C243.300400,243.390060 243.132919,243.667023 242.984848,243.977249 
	C242.984848,243.977249 242.946365,243.966324 242.313080,244.241486 
	C241.298843,245.811813 240.300247,247.392532 239.267197,248.950394 
	C236.839462,252.611481 234.395279,256.261658 231.248367,260.027893 
	C228.811356,263.347748 226.374359,266.667603 223.322449,270.321808 
	C219.844040,275.199860 216.365631,280.077911 212.974121,284.991577 
	C212.974121,284.991577 213.008850,284.904297 212.548187,285.080200 
	C212.194458,285.266479 212.087234,285.546906 212.409821,286.687988 
	C213.286194,287.068634 214.159912,287.772583 215.039368,287.779846 
	C223.683197,287.851288 232.327972,287.806885 241.910080,287.925903 
	C249.341370,287.928406 256.773865,287.858154 264.203156,287.981201 
	C266.225189,288.014679 268.237610,288.630341 269.940979,289.665131 
	C268.951447,293.084473 267.961914,296.503784 266.351776,300.235809 
	C265.579956,302.801483 264.808167,305.367157 263.859009,307.962494 
	C263.859009,307.962494 263.881500,308.140930 263.526520,308.206879 
	C263.277130,308.335327 263.182281,308.536682 263.009949,308.845032 
	C263.009949,308.845032 262.949005,309.071533 262.463257,309.130768 
	C262.626892,309.436401 262.790558,309.742065 262.823639,310.707489 
	C261.854279,313.789764 260.884949,316.872009 259.980438,319.981293 
	C259.980438,319.981293 259.957611,319.914825 259.452209,320.070953 
	C259.360443,320.375732 259.268707,320.680481 258.887238,321.650238 
	C257.231262,326.087463 255.575256,330.524719 253.374146,335.207489 
	C252.235825,338.996643 251.051788,342.773163 249.999023,346.585968 
	C249.796661,347.318878 250.109756,348.194122 249.915253,349.609192 
	C248.597595,353.700623 247.279922,357.792023 245.286453,362.235229 
	C243.388504,367.425476 241.443741,372.599518 239.638916,377.821930 
	C239.339981,378.686951 239.652573,379.763245 239.682556,380.741913 
	C240.207916,380.414490 240.733276,380.087036 241.684372,379.680389 
	C241.937607,379.430511 241.955612,379.164124 241.803711,378.820282 
	C241.803711,378.820282 241.796997,378.731171 242.367508,378.562408 
	C242.553589,378.013275 242.739670,377.464142 242.952957,376.964478 
	C242.952957,376.964478 242.902176,376.932343 243.629929,376.922638 
	C250.441299,367.969238 257.252686,359.015808 264.672577,349.745056 
	C267.147827,346.177734 269.623077,342.610413 272.705414,338.748230 
	C276.480652,333.845062 280.255890,328.941864 284.000000,324.000000 
	C284.000000,324.000000 284.033173,324.036469 284.510773,323.874023 
	C284.686798,323.597931 284.862823,323.321808 285.675385,322.753540 
	C288.042328,319.506165 290.409271,316.258820 293.152588,312.372070 
	C295.136017,309.597107 297.119476,306.822174 299.714722,303.774933 
	C303.171753,299.199677 306.628784,294.624451 310.707489,289.768372 
	C314.444061,284.882172 318.180634,279.995941 322.080627,275.111847 
	C322.080627,275.111847 322.090088,274.948639 322.570862,274.850983 
	C322.860168,274.651825 323.025940,274.377838 323.010681,274.003052 
	C323.010681,274.003052 323.031769,274.062531 323.554657,273.927185 
	C323.644867,273.615631 323.735077,273.304077 324.154205,272.343414 
	C331.105408,263.230316 338.056580,254.117233 345.000000,245.000046 
	C345.000000,245.000046 345.003967,245.008698 345.484833,244.901917 
	C345.854095,244.715881 345.946106,244.438126 345.915253,243.199539 
	C345.170959,242.796326 344.426788,242.041794 343.682343,242.041550 
	C327.122009,242.036057 310.561676,242.113724 293.177094,242.032074 
	C291.785278,242.080566 290.393433,242.129044 288.480347,242.005325 
	C288.305603,241.950943 288.130859,241.896561 287.943756,241.223557 
	C287.883118,240.816666 287.822479,240.409760 287.952240,239.273956 
	C288.894592,236.517227 289.836945,233.760498 290.920868,230.355515 
	C290.973450,229.917023 291.026062,229.478546 291.535095,228.911438 
	C291.875549,228.719376 291.961823,228.446823 292.084930,227.385025 
	C292.391571,225.941391 292.698212,224.497772 293.676514,222.695572 
	C294.699799,219.465942 295.723083,216.236313 296.933746,212.283478 
	C296.967651,211.786591 297.001556,211.289688 297.493347,210.535248 
	C297.595673,210.041611 297.698029,209.547958 297.957153,208.414551 
	C298.332550,206.637848 298.707947,204.861145 299.736816,202.723083 
	C302.791443,193.575363 305.953583,184.461731 308.867584,175.269424 
	C311.316437,167.544464 313.476288,159.727875 315.903290,151.497345 
	C315.903290,151.497345 316.004913,151.033005 316.530609,150.907593 
	C316.610504,150.598267 316.690399,150.288925 316.918884,149.271088 
	C314.720551,148.384903 314.834229,148.592194 312.912445,151.228836 
	C308.274384,157.592163 303.361267,163.754288 298.668518,170.078766 
	C296.288025,173.287033 294.144409,176.671097 291.271118,180.261047 
	C288.839020,183.487473 286.406921,186.713898 283.291870,190.198364 
	C279.486298,195.449371 275.680756,200.700363 271.230530,206.317245 
	C269.139618,209.277603 267.048737,212.237961 264.472382,215.124176 
	C264.145569,215.296310 263.991150,215.566849 263.973480,215.943344 
	C263.973480,215.943344 263.970123,215.979553 263.469360,216.105606 
z"/>
<path fill="#B27FE5" opacity="1.000000" stroke="none" 
	d="
M345.007751,245.004120 
	C338.056580,254.117233 331.105408,263.230316 323.823853,272.820251 
	C323.280762,273.516754 323.126831,273.771912 323.031769,274.062531 
	C323.031769,274.062531 323.010681,274.003052 322.840210,274.128784 
	C322.421997,274.440338 322.228790,274.671722 322.090088,274.948639 
	C322.090088,274.948639 322.080627,275.111847 321.672791,275.226013 
	C319.841003,275.228485 318.367523,275.313477 317.001892,274.969849 
	C311.926270,273.692566 306.886139,272.274353 301.899414,270.579224 
	C301.582092,268.798187 305.579041,267.406006 301.685333,265.681396 
	C297.564667,265.298248 293.783234,265.145782 289.566895,264.978302 
	C287.106995,264.891998 285.082001,264.820709 282.947876,264.427399 
	C280.900299,263.071747 279.032074,261.865265 277.008026,261.041992 
	C273.252563,259.514435 269.406097,258.210693 265.831604,256.558899 
	C268.950775,254.493423 271.835846,252.682831 275.047791,251.053314 
	C276.354126,251.861786 277.254883,252.787735 278.325378,253.070114 
	C288.551575,255.767761 298.772186,258.509186 309.086548,260.828217 
	C310.832672,261.220795 313.017731,259.661133 315.324646,258.946198 
	C316.764374,258.249664 317.879456,257.610382 319.334778,256.905212 
	C321.800323,255.603058 323.925598,254.366730 326.399811,253.039551 
	C328.678467,252.050720 330.587830,251.105377 332.542145,250.264557 
	C336.684937,248.482193 340.851135,246.754333 345.007751,245.004120 
z"/>
<path fill="#5D3BBA" opacity="1.000000" stroke="none" 
	d="
M274.720917,250.872223 
	C271.835846,252.682831 268.950775,254.493423 265.517639,256.647644 
	C261.863342,259.037537 258.757080,261.083801 255.650833,263.130096 
	C255.755249,263.568512 255.859680,264.006958 255.964096,264.445404 
	C259.638702,264.640259 263.313324,264.835144 266.908875,265.370392 
	C266.594391,266.142181 266.470123,266.775543 266.107208,266.975250 
	C258.506470,271.157532 250.854080,275.246490 243.270096,279.458710 
	C240.739410,280.864227 238.370087,282.560333 235.730438,284.249390 
	C238.140259,285.879486 239.556381,286.837433 240.972488,287.795349 
	C232.327972,287.806885 223.683197,287.851288 215.039368,287.779846 
	C214.159912,287.772583 213.286194,287.068634 212.461670,286.145996 
	C212.664734,285.360962 212.829849,285.127716 213.008850,284.904297 
	C213.008850,284.904297 212.974121,284.991577 213.295563,284.928406 
	C219.082962,281.934540 224.548904,279.003845 230.368607,275.998169 
	C235.489319,273.342499 240.256271,270.761780 245.378082,268.088776 
	C252.445602,266.326874 255.773560,261.671997 257.337463,255.026428 
	C259.132111,252.262604 260.618134,249.661438 262.089417,247.032745 
	C262.074615,247.005203 262.051758,247.063370 262.307007,246.895966 
	C262.735138,246.154053 262.908020,245.579544 263.048950,245.014709 
	C263.017029,245.024399 263.053894,245.080017 263.297668,244.958313 
	C263.792480,244.575638 264.043549,244.314682 264.644592,244.068085 
	C268.770935,245.750824 272.547272,247.419189 276.134766,249.322723 
	C275.537628,249.995987 275.129272,250.434097 274.720917,250.872223 
z"/>
<path fill="#B685E4" opacity="1.000000" stroke="none" 
	d="
M315.764099,151.951859 
	C313.476288,159.727875 311.316437,167.544464 308.867584,175.269424 
	C305.953583,184.461731 302.791443,193.575363 299.005798,202.879288 
	C294.898743,202.060745 291.522766,201.085999 288.244568,199.813141 
	C288.569885,198.713074 288.797333,197.911118 289.300415,196.900375 
	C292.372833,191.788376 295.169586,186.885132 298.131134,181.675613 
	C302.179138,174.317078 305.970337,167.211792 309.989502,160.237869 
	C311.664307,157.331772 313.824585,154.705429 315.764099,151.951859 
z"/>
<path fill="#8B6BDE" opacity="1.000000" stroke="none" 
	d="
M257.028870,255.189072 
	C255.773560,261.671997 252.445602,266.326874 245.270294,267.736816 
	C242.941910,266.513794 241.023621,265.638672 239.223221,264.565704 
	C236.754547,263.094513 234.375305,261.473236 231.957748,259.916260 
	C234.395279,256.261658 236.839462,252.611481 239.267197,248.950394 
	C240.300247,247.392532 241.298843,245.811813 242.674255,244.462906 
	C244.295685,246.070618 245.309189,247.926331 246.867569,248.745453 
	C250.108292,250.448837 253.637680,251.603043 257.031189,253.350159 
	C257.018951,254.207932 257.023926,254.698502 257.028870,255.189072 
z"/>
<path fill="#8561D8" opacity="1.000000" stroke="none" 
	d="
M266.972351,299.923096 
	C267.961914,296.503784 268.951447,293.084473 270.286194,289.346802 
	C270.631378,289.028442 271.011597,289.029297 271.299469,289.200195 
	C272.100769,289.787781 272.563568,290.298615 273.135651,290.606354 
	C277.752136,293.089447 282.389191,295.534363 287.382446,298.013672 
	C291.530914,300.040039 295.316895,302.043610 299.102905,304.047211 
	C297.119476,306.822174 295.136017,309.597107 292.614258,312.663452 
	C289.049194,311.322815 286.022430,309.690765 282.895447,307.725861 
	C282.190521,306.870178 281.667511,306.160004 280.967865,305.854828 
	C276.323792,303.829132 271.641937,301.890228 266.972351,299.923096 
z"/>
<path fill="#D6B1F3" opacity="1.000000" stroke="none" 
	d="
M345.003876,245.002075 
	C340.851135,246.754333 336.684937,248.482193 332.542145,250.264557 
	C330.587830,251.105377 328.678467,252.050720 326.106323,252.791916 
	C322.105804,251.713837 318.689728,250.961761 315.401398,249.836487 
	C308.233551,247.383652 301.130737,244.740814 294.001312,242.175629 
	C310.561676,242.113724 327.122009,242.036057 343.682343,242.041550 
	C344.426788,242.041794 345.170959,242.796326 345.649658,243.734192 
	C345.134186,244.452133 345.007477,244.698746 345.003967,245.008698 
	C345.003967,245.008698 345.000000,245.000046 345.003876,245.002075 
z"/>
<path fill="#A276E1" opacity="1.000000" stroke="none" 
	d="
M301.832672,270.909058 
	C306.886139,272.274353 311.926270,273.692566 317.001892,274.969849 
	C318.367523,275.313477 319.841003,275.228485 321.591064,275.224976 
	C318.180634,279.995941 314.444061,284.882172 310.024750,289.878967 
	C307.436493,289.094788 305.600952,287.973999 303.609344,287.357178 
	C300.480835,286.388306 297.247101,285.759094 294.056274,284.674133 
	C294.097321,283.949219 294.140015,283.536163 294.505249,283.020996 
	C296.921844,279.257721 299.015869,275.596588 301.284271,271.795288 
	C301.669861,271.440277 301.845367,271.199371 301.941986,270.959442 
	C301.898834,270.986420 301.832672,270.909058 301.832672,270.909058 
z"/>
<path fill="#B27FE5" opacity="1.000000" stroke="none" 
	d="
M250.957657,233.975906 
	C255.038315,228.676514 259.118958,223.377121 263.913330,218.048157 
	C267.709778,219.684677 270.792480,221.350784 273.754639,223.343628 
	C273.437317,224.808167 273.240540,225.945969 273.024689,227.055954 
	C273.005615,227.028137 273.066315,226.998734 272.857483,227.137329 
	C272.437103,227.532257 272.225525,227.788605 272.007080,228.018631 
	C272.000214,227.992310 272.053009,228.005371 271.821777,228.240692 
	C271.409729,229.105865 271.228912,229.735703 270.985840,230.694672 
	C269.645355,233.688904 268.367188,236.353973 266.927063,239.296173 
	C265.888519,240.757553 265.011841,241.941818 264.092773,242.736771 
	C263.091980,240.764572 262.502899,238.477829 261.100128,237.741638 
	C257.932861,236.079453 254.363464,235.183548 250.957657,233.975906 
z"/>
<path fill="#694BC4" opacity="1.000000" stroke="none" 
	d="
M271.011597,289.029297 
	C271.011597,289.029297 270.631378,289.028442 270.442902,289.003601 
	C268.237610,288.630341 266.225189,288.014679 264.203156,287.981201 
	C256.773865,287.858154 249.341370,287.928406 241.441284,287.860626 
	C239.556381,286.837433 238.140259,285.879486 235.730438,284.249390 
	C238.370087,282.560333 240.739410,280.864227 243.270096,279.458710 
	C250.854080,275.246490 258.506470,271.157532 266.107208,266.975250 
	C266.470123,266.775543 266.594391,266.142181 267.366882,265.333496 
	C271.264862,264.979919 274.625702,265.003601 277.874695,265.351440 
	C267.363220,271.961731 256.963684,278.247894 246.564133,284.534058 
	C246.694244,285.106659 246.824341,285.679291 246.954453,286.251892 
	C253.958954,286.472595 260.963440,286.693298 268.301819,286.918091 
	C269.080933,286.920563 269.526184,286.918945 270.205444,286.980927 
	C270.630188,287.706116 270.820892,288.367706 271.011597,289.029297 
z"/>
<path fill="#966FDD" opacity="1.000000" stroke="none" 
	d="
M294.057922,284.986023 
	C297.247101,285.759094 300.480835,286.388306 303.609344,287.357178 
	C305.600952,287.973999 307.436493,289.094788 309.713928,290.019409 
	C306.628784,294.624451 303.171753,299.199677 299.408813,303.911072 
	C295.316895,302.043610 291.530914,300.040039 287.553101,297.711121 
	C288.256470,294.952179 289.151611,292.518555 290.333344,290.010223 
	C291.099915,289.608521 291.579926,289.281555 292.249451,288.799194 
	C292.672424,288.406250 292.854401,288.134277 292.991516,287.612030 
	C292.998169,287.396179 293.044769,286.966766 293.236877,286.812469 
	C293.665558,286.422058 293.851837,286.151337 293.997131,285.630341 
	C294.006439,285.414673 294.057922,284.986023 294.057922,284.986023 
z"/>
<path fill="#A276E1" opacity="1.000000" stroke="none" 
	d="
M250.979645,233.984283 
	C254.363464,235.183548 257.932861,236.079453 261.100128,237.741638 
	C262.502899,238.477829 263.091980,240.764572 264.057556,242.720978 
	C264.064667,243.094498 264.074219,243.018631 263.852417,243.218445 
	C263.438385,243.972168 263.246155,244.526093 263.053894,245.080017 
	C263.053894,245.080017 263.017029,245.024399 262.828308,245.216080 
	C262.443665,245.959625 262.247711,246.511505 262.051758,247.063370 
	C262.051758,247.063370 262.074615,247.005203 261.756866,247.099915 
	C259.975555,249.124069 258.511993,251.053513 257.048431,252.982956 
	C253.637680,251.603043 250.108292,250.448837 246.867569,248.745453 
	C245.309189,247.926331 244.295685,246.070618 242.990906,244.325317 
	C242.946365,243.966324 242.984848,243.977249 243.167725,243.873230 
	C243.588608,243.611176 243.794724,243.418976 243.968979,243.192581 
	C245.939880,240.661133 247.910782,238.129684 250.193771,235.121307 
	C250.672318,234.418976 250.830383,234.187790 250.980057,233.950851 
	C250.980057,233.950851 251.001648,233.992661 250.979645,233.984283 
z"/>
<path fill="#B27FE5" opacity="1.000000" stroke="none" 
	d="
M253.919281,334.961945 
	C255.575256,330.524719 257.231262,326.087463 259.193939,321.163513 
	C259.711060,320.457672 259.863403,320.203674 259.957611,319.914825 
	C259.957611,319.914825 259.980438,319.981293 260.357727,319.906372 
	C265.228882,319.892731 269.722717,319.954071 274.180359,320.380127 
	C274.072571,321.473724 274.000946,322.202576 273.684845,323.165131 
	C270.641449,327.935181 267.842499,332.471527 264.807678,337.221161 
	C263.726685,338.646362 262.881531,339.858276 261.852051,340.785797 
	C259.084900,338.654907 256.502075,336.808441 253.919281,334.961945 
z"/>
<path fill="#C49AEC" opacity="1.000000" stroke="none" 
	d="
M289.024780,197.109146 
	C288.797333,197.911118 288.569885,198.713074 288.064911,200.107574 
	C285.951385,204.155457 284.115326,207.610794 282.098267,211.340012 
	C280.975311,212.762939 280.033386,213.911957 279.063446,214.685822 
	C276.648651,211.524231 274.261932,208.737793 271.875183,205.951370 
	C275.680756,200.700363 279.486298,195.449371 283.709229,190.413330 
	C285.759338,192.788574 287.392059,194.948868 289.024780,197.109146 
z"/>
<path fill="#7652C9" opacity="1.000000" stroke="none" 
	d="
M267.088989,239.019058 
	C268.367188,236.353973 269.645355,233.688904 271.234985,230.463257 
	C271.715302,229.270248 271.884155,228.637817 272.053009,228.005371 
	C272.053009,228.005371 272.000214,227.992310 272.263062,227.945740 
	C272.706055,227.599030 272.886169,227.298874 273.066315,226.998718 
	C273.066315,226.998734 273.005615,227.028137 273.255188,226.993896 
	C273.504730,226.959641 273.961731,226.821518 274.134216,227.136536 
	C278.859161,232.987259 284.713745,232.484634 290.779297,231.003769 
	C289.836945,233.760498 288.894592,236.517227 287.442017,239.633514 
	C280.317535,239.668396 273.703247,239.343719 267.088989,239.019058 
z"/>
<path fill="#C49AEC" opacity="1.000000" stroke="none" 
	d="
M318.994537,256.971069 
	C317.879456,257.610382 316.764374,258.249664 315.103516,258.640137 
	C309.607239,257.253784 304.605682,256.298737 299.718567,254.934021 
	C293.123871,253.092499 285.911652,252.576477 281.140381,246.643005 
	C283.548645,244.866638 285.752380,243.354416 287.956116,241.842163 
	C288.130859,241.896561 288.305603,241.950943 288.765259,242.448715 
	C290.995392,244.863174 292.603912,247.784042 294.952698,248.616669 
	C300.648407,250.635727 306.747559,251.485428 312.561035,253.219055 
	C314.872894,253.908447 316.859741,255.687881 318.994537,256.971069 
z"/>
<path fill="#8561D8" opacity="1.000000" stroke="none" 
	d="
M290.850098,230.679642 
	C284.713745,232.484634 278.859161,232.987259 274.194305,226.816330 
	C274.412048,225.143448 274.742157,224.105804 275.064545,223.062775 
	C275.056824,223.057419 275.057129,223.045776 275.346497,222.872101 
	C276.113312,221.475494 276.590729,220.252548 277.036316,219.036240 
	C277.004486,219.042877 277.058533,219.079041 277.309235,219.095551 
	C277.725128,219.084915 277.890350,219.057755 278.435181,219.097092 
	C282.205780,219.776184 285.625854,220.265915 288.973999,221.059372 
	C290.395386,221.396210 291.665833,222.369888 293.004883,223.054138 
	C292.698212,224.497772 292.391571,225.941391 291.783691,227.867294 
	C291.281677,228.541031 291.147095,228.771194 291.078644,229.040054 
	C291.026062,229.478546 290.973450,229.917023 290.850098,230.679642 
z"/>
<path fill="#8561D8" opacity="1.000000" stroke="none" 
	d="
M231.603058,259.972076 
	C234.375305,261.473236 236.754547,263.094513 239.223221,264.565704 
	C241.023621,265.638672 242.941910,266.513794 244.915436,267.829071 
	C240.256271,270.761780 235.489319,273.342499 230.203644,275.706024 
	C227.769058,273.654999 225.853195,271.821228 223.937347,269.987427 
	C226.374359,266.667603 228.811356,263.347748 231.603058,259.972076 
z"/>
<path fill="#7956CF" opacity="1.000000" stroke="none" 
	d="
M273.929321,322.931458 
	C274.000946,322.202576 274.072571,321.473724 274.443542,320.203003 
	C276.500153,317.106018 278.257355,314.550873 280.024750,311.796722 
	C280.034912,311.597687 280.028687,311.199127 280.238922,310.961182 
	C280.723083,310.153961 280.997009,309.584656 281.489502,308.899658 
	C282.137238,308.542175 282.566437,308.300446 282.995667,308.058685 
	C286.022430,309.690765 289.049194,311.322815 292.426086,312.983154 
	C290.409271,316.258820 288.042328,319.506165 285.157349,323.028992 
	C284.388519,323.508118 284.186493,323.752106 284.033173,324.036469 
	C284.033173,324.036469 284.000000,324.000000 283.568451,324.010223 
	C280.067719,323.657440 276.998505,323.294434 273.929321,322.931458 
z"/>
<path fill="#CDA4F0" opacity="1.000000" stroke="none" 
	d="
M319.334778,256.905212 
	C316.859741,255.687881 314.872894,253.908447 312.561035,253.219055 
	C306.747559,251.485428 300.648407,250.635727 294.952698,248.616669 
	C292.603912,247.784042 290.995392,244.863174 289.025879,242.534821 
	C290.393433,242.129044 291.785278,242.080566 293.589203,242.103851 
	C301.130737,244.740814 308.233551,247.383652 315.401398,249.836487 
	C318.689728,250.961761 322.105804,251.713837 325.757416,252.882782 
	C323.925598,254.366730 321.800323,255.603058 319.334778,256.905212 
z"/>
<path fill="#A276E1" opacity="1.000000" stroke="none" 
	d="
M280.014587,311.995789 
	C278.257355,314.550873 276.500153,317.106018 274.479767,319.838257 
	C269.722717,319.954071 265.228882,319.892731 260.325317,319.892853 
	C260.884949,316.872009 261.854279,313.789764 262.900818,310.133698 
	C262.977966,309.559906 262.949005,309.071533 262.949005,309.071533 
	C262.949005,309.071533 263.009949,308.845032 263.264832,308.755463 
	C263.693359,308.527527 263.813934,308.352539 263.881500,308.140930 
	C263.881500,308.140930 263.859009,307.962494 264.324280,307.989807 
	C269.864532,309.343323 274.939545,310.669556 280.014587,311.995789 
z"/>
<path fill="#D6B1F3" opacity="1.000000" stroke="none" 
	d="
M315.833679,151.724609 
	C313.824585,154.705429 311.664307,157.331772 309.989502,160.237869 
	C305.970337,167.211792 302.179138,174.317078 297.771118,181.659302 
	C295.462128,181.291397 293.677917,180.633545 291.893707,179.975693 
	C294.144409,176.671097 296.288025,173.287033 298.668518,170.078766 
	C303.361267,163.754288 308.274384,157.592163 312.912445,151.228836 
	C314.834229,148.592194 314.720551,148.384903 316.646149,149.742859 
	C316.121582,150.429321 315.998749,150.702118 316.004913,151.033005 
	C316.004913,151.033005 315.903290,151.497345 315.833679,151.724609 
z"/>
<path fill="#7652C9" opacity="1.000000" stroke="none" 
	d="
M273.684845,323.165100 
	C276.998505,323.294434 280.067719,323.657440 283.584015,324.029541 
	C280.255890,328.941864 276.480652,333.845062 272.038605,338.823975 
	C269.262390,338.269104 267.152954,337.638489 265.043549,337.007874 
	C267.842499,332.471527 270.641449,327.935181 273.684845,323.165100 
z"/>
<path fill="#BA8BE9" opacity="1.000000" stroke="none" 
	d="
M271.552856,206.134308 
	C274.261932,208.737793 276.648651,211.524231 279.044495,214.680237 
	C279.053558,215.049805 279.047943,215.019638 278.798218,215.236786 
	C278.051849,216.662292 277.555176,217.870667 277.058533,219.079041 
	C277.058533,219.079041 277.004486,219.042877 276.740265,219.210007 
	C276.003082,220.600021 275.530121,221.822906 275.057129,223.045776 
	C275.057129,223.045776 275.056824,223.057419 274.765686,223.040283 
	C274.274719,223.021057 274.074951,223.018967 273.875183,223.016891 
	C270.792480,221.350784 267.709778,219.684677 264.257263,217.992676 
	C263.887451,217.966766 263.988220,217.516586 263.988403,217.017273 
	C263.982422,216.338486 263.976257,216.159012 263.970123,215.979553 
	C263.970123,215.979553 263.973480,215.943344 264.174011,215.852448 
	C264.602356,215.608368 264.796783,215.420624 264.957855,215.198334 
	C267.048737,212.237961 269.139618,209.277603 271.552856,206.134308 
z"/>
<path fill="#694BC4" opacity="1.000000" stroke="none" 
	d="
M287.949951,241.532867 
	C285.752380,243.354416 283.548645,244.866638 280.826385,246.728973 
	C278.979797,247.748566 277.651703,248.418076 276.323608,249.087585 
	C272.547272,247.419189 268.770935,245.750824 264.596497,243.807739 
	C264.157013,243.361572 264.115631,243.190094 264.074219,243.018631 
	C264.074219,243.018631 264.064667,243.094498 264.099915,243.110291 
	C265.011841,241.941818 265.888519,240.757553 266.927063,239.296173 
	C273.703247,239.343719 280.317535,239.668396 287.346802,239.997955 
	C287.822479,240.409760 287.883118,240.816666 287.949951,241.532867 
z"/>
<path fill="#A276E1" opacity="1.000000" stroke="none" 
	d="
M282.279297,211.066116 
	C284.115326,207.610794 285.951385,204.155457 287.967102,200.405701 
	C291.522766,201.085999 294.898743,202.060745 298.679077,203.059967 
	C298.707947,204.861145 298.332550,206.637848 297.714630,208.918518 
	C297.326569,209.879242 297.181000,210.336029 297.035461,210.792801 
	C297.001556,211.289688 296.967651,211.786591 296.431335,212.638031 
	C291.379059,212.350433 286.829163,211.708267 282.279297,211.066116 
z"/>
<path fill="#966FDD" opacity="1.000000" stroke="none" 
	d="
M282.098267,211.340012 
	C286.829163,211.708267 291.379059,212.350433 296.337646,212.999634 
	C295.723083,216.236313 294.699799,219.465942 293.340698,222.874847 
	C291.665833,222.369888 290.395386,221.396210 288.973999,221.059372 
	C285.625854,220.265915 282.205780,219.776184 278.536072,218.764526 
	C278.520844,217.250183 278.784393,216.134903 279.047943,215.019638 
	C279.047943,215.019638 279.053558,215.049805 279.072510,215.055389 
	C280.033386,213.911957 280.975311,212.762939 282.098267,211.340012 
z"/>
<path fill="#8B6BDE" opacity="1.000000" stroke="none" 
	d="
M280.024750,311.796753 
	C274.939545,310.669556 269.864532,309.343323 264.412964,307.974976 
	C264.808167,305.367157 265.579956,302.801483 266.662048,300.079468 
	C271.641937,301.890228 276.323792,303.829132 280.967865,305.854828 
	C281.667511,306.160004 282.190521,306.870178 282.895447,307.725861 
	C282.566437,308.300446 282.137238,308.542175 281.217834,309.090942 
	C280.494659,309.998352 280.261658,310.598755 280.028687,311.199127 
	C280.028687,311.199127 280.034912,311.597687 280.024750,311.796753 
z"/>
<path fill="#5D3BBA" opacity="1.000000" stroke="none" 
	d="
M264.064056,350.062408 
	C257.252686,359.015808 250.441299,367.969238 243.253403,376.559937 
	C244.908417,372.132538 246.939957,368.067871 249.206451,363.753143 
	C251.695892,359.356995 253.950378,355.210876 256.422058,350.889587 
	C257.065918,350.127289 257.492554,349.540161 258.249695,349.028595 
	C260.408142,349.423584 262.236084,349.743011 264.064056,350.062408 
z"/>
<path fill="#BA8BE9" opacity="1.000000" stroke="none" 
	d="
M257.919220,348.953033 
	C257.492554,349.540161 257.065918,350.127289 256.065948,350.817200 
	C253.723419,350.281250 251.954239,349.642487 250.185059,349.003723 
	C250.109756,348.194122 249.796661,347.318878 249.999023,346.585968 
	C251.051788,342.773163 252.235825,338.996643 253.646713,335.084717 
	C256.502075,336.808441 259.084900,338.654907 261.789642,341.124939 
	C260.580811,344.149963 259.250031,346.551514 257.919220,348.953033 
z"/>
<path fill="#CDA4F0" opacity="1.000000" stroke="none" 
	d="
M291.582397,180.118378 
	C293.677917,180.633545 295.462128,181.291397 297.606323,181.965576 
	C295.169586,186.885132 292.372833,191.788376 289.300415,196.900375 
	C287.392059,194.948868 285.759338,192.788574 284.050720,190.284302 
	C286.406921,186.713898 288.839020,183.487473 291.582397,180.118378 
z"/>
<path fill="#7956CF" opacity="1.000000" stroke="none" 
	d="
M223.629883,270.154602 
	C225.853195,271.821228 227.769058,273.654999 229.849884,275.780945 
	C224.548904,279.003845 219.082962,281.934540 213.252106,284.910583 
	C216.365631,280.077911 219.844040,275.199860 223.629883,270.154602 
z"/>
<path fill="#694BC4" opacity="1.000000" stroke="none" 
	d="
M258.249695,349.028595 
	C259.250031,346.551514 260.580811,344.149963 261.973999,341.409302 
	C262.881531,339.858276 263.726685,338.646362 264.807678,337.221161 
	C267.152954,337.638489 269.262390,338.269104 271.735046,338.971436 
	C269.623077,342.610413 267.147827,346.177734 264.368317,349.903748 
	C262.236084,349.743011 260.408142,349.423584 258.249695,349.028595 
z"/>
<path fill="#C49AEC" opacity="1.000000" stroke="none" 
	d="
M250.050156,349.306458 
	C251.954239,349.642487 253.723419,350.281250 255.848724,350.992371 
	C253.950378,355.210876 251.695892,359.356995 248.891052,363.690491 
	C247.547882,363.213074 246.755081,362.548248 245.962280,361.883453 
	C247.279922,357.792023 248.597595,353.700623 250.050156,349.306458 
z"/>
<path fill="#CDA4F0" opacity="1.000000" stroke="none" 
	d="
M245.624359,362.059326 
	C246.755081,362.548248 247.547882,363.213074 248.656097,363.940552 
	C246.939957,368.067871 244.908417,372.132538 242.889526,376.564789 
	C242.902176,376.932343 242.952957,376.964478 242.661682,377.044647 
	C242.179276,377.660278 241.988144,378.195709 241.796997,378.731171 
	C241.796997,378.731171 241.803711,378.820282 241.581909,378.916809 
	C241.161362,379.239807 241.127533,379.488556 241.258636,379.759583 
	C240.733276,380.087036 240.207916,380.414490 239.682556,380.741913 
	C239.652573,379.763245 239.339981,378.686951 239.638916,377.821930 
	C241.443741,372.599518 243.388504,367.425476 245.624359,362.059326 
z"/>
<path fill="#966FDD" opacity="1.000000" stroke="none" 
	d="
M297.264404,210.664032 
	C297.181000,210.336029 297.326569,209.879242 297.636230,209.238403 
	C297.698029,209.547958 297.595673,210.041611 297.264404,210.664032 
z"/>
<path fill="#5D3BBA" opacity="1.000000" stroke="none" 
	d="
M242.082245,378.646790 
	C241.988144,378.195709 242.179276,377.660278 242.648071,377.019897 
	C242.739670,377.464142 242.553589,378.013275 242.082245,378.646790 
z"/>
<path fill="#5D3BBA" opacity="1.000000" stroke="none" 
	d="
M241.471497,379.719971 
	C241.127533,379.488556 241.161362,379.239807 241.549255,378.947296 
	C241.955612,379.164124 241.937607,379.430511 241.471497,379.719971 
z"/>
<path fill="#B685E4" opacity="1.000000" stroke="none" 
	d="
M316.267761,150.970306 
	C315.998749,150.702118 316.121582,150.429321 316.571838,150.097107 
	C316.690399,150.288925 316.610504,150.598267 316.267761,150.970306 
z"/>
<path fill="#8B6BDE" opacity="1.000000" stroke="none" 
	d="
M262.706116,309.101135 
	C262.949005,309.071533 262.977966,309.559906 262.966064,309.803802 
	C262.790558,309.742065 262.626892,309.436401 262.706116,309.101135 
z"/>
<path fill="#A276E1" opacity="1.000000" stroke="none" 
	d="
M259.704895,319.992889 
	C259.863403,320.203674 259.711060,320.457672 259.338806,320.831024 
	C259.268707,320.680481 259.360443,320.375732 259.704895,319.992889 
z"/>
<path fill="#7652C9" opacity="1.000000" stroke="none" 
	d="
M284.271973,323.955261 
	C284.186493,323.752106 284.388519,323.508118 284.839050,323.175079 
	C284.862823,323.321808 284.686798,323.597931 284.271973,323.955261 
z"/>
<path fill="#8B6BDE" opacity="1.000000" stroke="none" 
	d="
M263.704010,308.173889 
	C263.813934,308.352539 263.693359,308.527527 263.380859,308.738403 
	C263.182281,308.536682 263.277130,308.335327 263.704010,308.173889 
z"/>
<path fill="#7956CF" opacity="1.000000" stroke="none" 
	d="
M212.778519,284.992249 
	C212.829849,285.127716 212.664734,285.360962 212.369995,285.762756 
	C212.087234,285.546906 212.194458,285.266479 212.778519,284.992249 
z"/>
<path fill="#A276E1" opacity="1.000000" stroke="none" 
	d="
M322.330475,274.899811 
	C322.228790,274.671722 322.421997,274.440338 322.868958,274.141754 
	C323.025940,274.377838 322.860168,274.651825 322.330475,274.899811 
z"/>
<path fill="#A276E1" opacity="1.000000" stroke="none" 
	d="
M323.293213,273.994873 
	C323.126831,273.771912 323.280762,273.516754 323.659363,273.144806 
	C323.735077,273.304077 323.644867,273.615631 323.293213,273.994873 
z"/>
<path fill="#B27FE5" opacity="1.000000" stroke="none" 
	d="
M264.715118,215.161255 
	C264.796783,215.420624 264.602356,215.608368 264.191833,215.848663 
	C263.991150,215.566849 264.145569,215.296310 264.715118,215.161255 
z"/>
<path fill="#B27FE5" opacity="1.000000" stroke="none" 
	d="
M263.719727,216.042572 
	C263.976257,216.159012 263.982422,216.338486 263.978516,216.786819 
	C263.802094,216.738983 263.635742,216.422302 263.719727,216.042572 
z"/>
<path fill="#B27FE5" opacity="1.000000" stroke="none" 
	d="
M345.244385,244.955307 
	C345.007477,244.698746 345.134186,244.452133 345.572449,244.168762 
	C345.946106,244.438126 345.854095,244.715881 345.244385,244.955307 
z"/>
<path fill="#8B6BDE" opacity="1.000000" stroke="none" 
	d="
M243.718414,243.152832 
	C243.794724,243.418976 243.588608,243.611176 243.158035,243.856598 
	C243.132919,243.667023 243.300400,243.390060 243.718414,243.152832 
z"/>
<path fill="#7652C9" opacity="1.000000" stroke="none" 
	d="
M291.306885,228.975739 
	C291.147095,228.771194 291.281677,228.541031 291.638184,228.221649 
	C291.961823,228.446823 291.875549,228.719376 291.306885,228.975739 
z"/>
<path fill="#B27FE5" opacity="1.000000" stroke="none" 
	d="
M250.747986,234.031815 
	C250.830383,234.187790 250.672318,234.418976 250.365540,234.800644 
	C250.062637,234.586166 250.159515,234.304794 250.747986,234.031815 
z"/>
<path fill="#8561D8" opacity="1.000000" stroke="none" 
	d="
M269.971405,286.917328 
	C269.526184,286.918945 269.080933,286.920563 267.984253,286.717041 
	C265.130249,286.153534 262.927765,285.795227 260.725250,285.436920 
	C260.168121,284.721680 259.611023,284.006439 259.053894,283.291229 
	C260.567444,282.620941 262.157013,282.082123 263.581970,281.258545 
	C271.465271,276.702301 279.322144,272.099670 287.149445,267.447906 
	C288.211395,266.816772 289.056366,265.820526 290.001801,264.993347 
	C293.783234,265.145782 297.564667,265.298248 301.525085,265.987061 
	C296.125977,270.343964 290.547913,274.164520 284.665894,278.131226 
	C281.873932,280.170807 279.385925,282.064178 276.555115,284.028412 
	C274.132019,285.038635 272.051727,285.977997 269.971405,286.917328 
z"/>
<path fill="#7956CF" opacity="1.000000" stroke="none" 
	d="
M289.566895,264.978302 
	C289.056366,265.820526 288.211395,266.816772 287.149445,267.447906 
	C279.322144,272.099670 271.465271,276.702301 263.581970,281.258545 
	C262.157013,282.082123 260.567444,282.620941 259.053894,283.291229 
	C259.611023,284.006439 260.168121,284.721680 260.725250,285.436920 
	C262.927765,285.795227 265.130249,286.153534 267.650330,286.712952 
	C260.963440,286.693298 253.958954,286.472595 246.954453,286.251892 
	C246.824341,285.679291 246.694244,285.106659 246.564133,284.534058 
	C256.963684,278.247894 267.363220,271.961731 278.297058,265.324402 
	C280.239868,264.898590 281.648438,264.824005 283.056976,264.749451 
	C285.082001,264.820709 287.106995,264.891998 289.566895,264.978302 
z"/>
<path fill="#BA8BE9" opacity="1.000000" stroke="none" 
	d="
M276.134766,249.322723 
	C277.651703,248.418076 278.979797,247.748566 280.621887,246.993103 
	C285.911652,252.576477 293.123871,253.092499 299.718567,254.934021 
	C304.605682,256.298737 309.607239,257.253784 314.778900,258.697388 
	C313.017731,259.661133 310.832672,261.220795 309.086548,260.828217 
	C298.772186,258.509186 288.551575,255.767761 278.325378,253.070114 
	C277.254883,252.787735 276.354126,251.861786 275.047791,251.053314 
	C275.129272,250.434097 275.537628,249.995987 276.134766,249.322723 
z"/>
<path fill="#A276E1" opacity="1.000000" stroke="none" 
	d="
M282.947876,264.427368 
	C281.648438,264.824005 280.239868,264.898590 278.408936,265.000214 
	C274.625702,265.003601 271.264862,264.979919 267.445984,264.993103 
	C263.313324,264.835144 259.638702,264.640259 255.964096,264.445404 
	C255.859680,264.006958 255.755249,263.568512 255.650833,263.130096 
	C258.757080,261.083801 261.863342,259.037537 265.283539,256.902527 
	C269.406097,258.210693 273.252563,259.514435 277.008026,261.041992 
	C279.032074,261.865265 280.900299,263.071747 282.947876,264.427368 
z"/>
<path fill="#5D3BBA" opacity="1.000000" stroke="none" 
	d="
M284.969849,277.985077 
	C290.547913,274.164520 296.125977,270.343964 301.864319,266.217743 
	C305.579041,267.406006 301.582092,268.798187 301.899414,270.579224 
	C301.832672,270.909058 301.898834,270.986420 301.727173,271.058411 
	C301.289337,271.333649 301.140778,271.602020 301.109894,271.935455 
	C299.015869,275.596588 296.921844,279.257721 294.140137,282.932739 
	C290.624908,281.292755 287.797394,279.638916 284.969849,277.985077 
z"/>
<path fill="#B27FE5" opacity="1.000000" stroke="none" 
	d="
M257.031189,253.350159 
	C258.511993,251.053513 259.975555,249.124069 261.771667,247.127441 
	C260.618134,249.661438 259.132111,252.262604 257.337463,255.026428 
	C257.023926,254.698502 257.018951,254.207932 257.031189,253.350159 
z"/>
<path fill="#B27FE5" opacity="1.000000" stroke="none" 
	d="
M262.307007,246.895966 
	C262.247711,246.511505 262.443665,245.959625 262.860229,245.206390 
	C262.908020,245.579544 262.735138,246.154053 262.307007,246.895966 
z"/>
<path fill="#B27FE5" opacity="1.000000" stroke="none" 
	d="
M263.852417,243.218445 
	C264.115631,243.190094 264.157013,243.361572 264.246521,243.793365 
	C264.043549,244.314682 263.792480,244.575638 263.297668,244.958313 
	C263.246155,244.526093 263.438385,243.972168 263.852417,243.218445 
z"/>
<path fill="#7652C9" opacity="1.000000" stroke="none" 
	d="
M270.205444,286.980927 
	C272.051727,285.977997 274.132019,285.038635 276.867676,284.206787 
	C281.697601,286.237823 285.872192,288.161377 290.046753,290.084930 
	C289.151611,292.518555 288.256470,294.952179 287.190643,297.688385 
	C282.389191,295.534363 277.752136,293.089447 273.135651,290.606354 
	C272.563568,290.298615 272.100769,289.787781 271.299500,289.200195 
	C270.820892,288.367706 270.630188,287.706116 270.205444,286.980927 
z"/>
<path fill="#694BC4" opacity="1.000000" stroke="none" 
	d="
M290.333374,290.010223 
	C285.872192,288.161377 281.697601,286.237823 277.210449,284.135925 
	C279.385925,282.064178 281.873932,280.170807 284.665894,278.131226 
	C287.797394,279.638916 290.624908,281.292755 293.817596,283.034882 
	C294.140015,283.536163 294.097321,283.949219 294.056274,284.674133 
	C294.057922,284.986023 294.006439,285.414673 293.800964,285.784729 
	C293.334564,286.372986 293.151001,286.643646 293.044769,286.966766 
	C293.044769,286.966766 292.998169,287.396179 292.797913,287.768188 
	C292.340302,288.360077 292.161041,288.631531 292.059906,288.954559 
	C291.579926,289.281555 291.099915,289.608521 290.333374,290.010223 
z"/>
<path fill="#B27FE5" opacity="1.000000" stroke="none" 
	d="
M301.284271,271.795288 
	C301.140778,271.602020 301.289337,271.333649 301.770325,271.031433 
	C301.845367,271.199371 301.669861,271.440277 301.284271,271.795288 
z"/>
<path fill="#C49AEC" opacity="1.000000" stroke="none" 
	d="
M273.754639,223.343628 
	C274.074951,223.018967 274.274719,223.021057 274.773376,223.045654 
	C274.742157,224.105804 274.412048,225.143448 274.021820,226.501312 
	C273.961731,226.821518 273.504730,226.959641 273.274231,227.021698 
	C273.240540,225.945969 273.437317,224.808167 273.754639,223.343628 
z"/>
<path fill="#C49AEC" opacity="1.000000" stroke="none" 
	d="
M271.821777,228.240692 
	C271.884155,228.637817 271.715302,229.270248 271.297272,230.134125 
	C271.228912,229.735703 271.409729,229.105865 271.821777,228.240692 
z"/>
<path fill="#C49AEC" opacity="1.000000" stroke="none" 
	d="
M272.857483,227.137329 
	C272.886169,227.298874 272.706055,227.599030 272.269958,227.972076 
	C272.225525,227.788605 272.437103,227.532257 272.857483,227.137329 
z"/>
<path fill="#A276E1" opacity="1.000000" stroke="none" 
	d="
M292.249451,288.799194 
	C292.161041,288.631531 292.340302,288.360077 292.791290,287.984009 
	C292.854401,288.134277 292.672424,288.406250 292.249451,288.799194 
z"/>
<path fill="#A276E1" opacity="1.000000" stroke="none" 
	d="
M293.236877,286.812469 
	C293.151001,286.643646 293.334564,286.372986 293.791656,286.000366 
	C293.851837,286.151337 293.665558,286.422058 293.236877,286.812469 
z"/>
<path fill="#C49AEC" opacity="1.000000" stroke="none" 
	d="
M275.346527,222.872101 
	C275.530121,221.822906 276.003082,220.600021 276.772095,219.203369 
	C276.590729,220.252548 276.113312,221.475494 275.346527,222.872101 
z"/>
<path fill="#C49AEC" opacity="1.000000" stroke="none" 
	d="
M278.798218,215.236786 
	C278.784393,216.134903 278.520844,217.250183 278.156433,218.698029 
	C277.890350,219.057755 277.725128,219.084915 277.309235,219.095551 
	C277.555176,217.870667 278.051849,216.662292 278.798218,215.236786 
z"/>
<path fill="#A276E1" opacity="1.000000" stroke="none" 
	d="
M280.238922,310.961182 
	C280.261658,310.598755 280.494659,309.998352 280.999298,309.206665 
	C280.997009,309.584656 280.723083,310.153961 280.238922,310.961182 
z"/>
</svg>